<svg height="155" viewBox="0 0 155 155" width="155" xmlns="http://www.w3.org/2000/svg" xmlns:xlink="http://www.w3.org/1999/xlink"><mask id="a" fill="#fff"><path d="m0 0h155v155h-155z" fill="#fff" fill-rule="evenodd"/></mask><g fill="none" mask="url(#a)"><g transform="translate(32 15)"><path d="m11.6577839 73.977171c0-3.442725 13.0620964-5.3743237 19.1447377-5.8436206l.581763.3359408c-2.3365252.4255735-11.7122606 2.0788005-11.7122606 4.2360601 0 2.3479419 14.3798684 3.8865166 22.725434 3.8865166 14.1750976 0 23.8109867-2.1456 26.4025645-2.8514886l3.6266058 2.108921c-2.483727 1.2164797-13.1427416 4.4014801-30.0291703 4.4014801-18.7653166-.000243-30.7396741-3.670572-30.7396741-6.2738094m28.6008754 48.339279c-7.4278619.06437-16.4955908-.5497-24.1236083-1.83055l-.7083177.404684c7.6003261 2.228431 18.1811246 3.573652 29.8061814 3.472602 22.8310987-.197726 41.3413626-5.859652 41.7069381-12.673444l-.262097-.154004c-1.5315304 1.867229-11.4064403 10.474891-46.4190965 10.780712m1.9432583-4.387635c18.6871004-.163233 39.5936447-3.819717 39.5407913-9.966729-.011517-1.11543-.7361095-1.878887-1.366211-2.338711l-.3082493.177079c-1.7270708 4.760255-16.3253129 8.278767-37.8964515 8.465076-13.9176158.12194-33.19813873-3.212691-33.23263156-7.064715-.03230667-3.86344 9.13428556-5.985964 9.13428556-5.985964l-.6485624-.370191c-6.1423966.846289-17.46139028 3.787653-17.42480021 8.03513.05352853 6.139725 26.06744141 9.189183 42.20182911 9.049025m42.0980188-42.3071617c-.3769921 7.2094882-7.0370241 11.6984149-13.6946269 15.4906834l.6026529.3495436c7.1038236-2.0005844 19.7794545-7.8189426 18.7308237-16.7647321-.5220077-4.4590491-4.5994494-7.6464785-9.9140179-7.6464785-1.6556561 0-3.1274313.2919746-4.3210777.6553639l-.0046153.0114166-.2531094.6347168c4.7558818-.9313066 9.1000357 2.541296 8.8539706 7.2694863m-54.8909739 21.4212648c-2.1686762.432375-6.8944375 1.5179276-6.8944375 3.8151019 0 3.182814 10.1093154 5.622818 19.8715163 5.622818 13.43253 0 18.9355946-3.456328 19.1838458-3.635836l-5.5858959-3.2311532c-2.3756333.5657312-6.377045 1.4533142-13.5841041 1.4533142-8.0419316 0-13.2828991-1.375098-13.2828991-2.8837952 0-.319666.2001556-.7012733.5725324-.977216zm32.9979832-10.7301864c-3.0885662.8739804-10.0473741 2.2996032-19.9980711 2.2996032-9.764387 0-17.7419481-1.6695017-17.7674534-3.6380224-.0184609-1.3109706 1.5660233-1.881074 1.5660233-1.881074l-.2805579-.1632337c-4.6774227.8256419-9.0193905 2.1043058-8.9964058 4.0174436.0438148 3.4701735 13.3174835 6.0758399 25.4599329 6.0758399 10.3233167 0 20.2370918-1.731686 24.7099865-4.0014117z" fill="#427595"/><path d="m59.7439531 8.8952648c0 19.1357502-26.223299 26.4577045-26.223299 40.0626986 0 9.5506287 6.3333217 15.539022 9.837988 19.3264324l-.2851731.1656628c-4.4245562-2.7689002-16.0632159-9.7230928-16.0632159-21.2099355 0-16.1275863 30.1212321-23.83382 30.1212321-42.15072965 0-2.2536938-.3335117-3.98295076-.5679172-4.9145002l.3036341-.17489325c.9541398 1.19826164 2.876751 4.19695208 2.876751 8.8952648m8.6239373 16.9461839-.3150507-.1792656c-5.7054063 1.9109516-23.2751332 8.8466834-23.2751332 21.7756666 0 7.3105376 7.1405026 11.362717 7.1405026 18.2180464 0 2.4468051-1.3821425 4.7396069-2.5043742 6.1100899l.563302.3264673c2.9734281-1.9315987 8.2350428-6.1147051 8.2350428-11.5142911 0-4.5739442-6.3287064-10.0702074-6.3287064-15.9483208.0002429-9.2630264 12.2114351-16.5300837 16.4844171-18.7883927" fill="#de8e2f"/></g></g></svg>