<svg height="155" viewBox="0 0 155 155" width="155" xmlns="http://www.w3.org/2000/svg" xmlns:xlink="http://www.w3.org/1999/xlink"><mask id="a" fill="#fff"><path d="m0 0h155v155h-155z" fill="#fff" fill-rule="evenodd"/></mask><g fill="none" mask="url(#a)"><g transform="translate(28 28)"><path d="m0 0h100v100h-100z" fill="#ffdf00"/><path d="m67.1746094 78.1253906c2.0142578 3.2888672 4.6349609 5.70625 9.2699219 5.70625 3.8935546 0 6.3808593-1.9460937 6.3808593-4.6349609 0-3.2222656-2.5554687-4.3634766-6.8412109-6.238086l-2.3492188-1.0080078c-6.7810546-2.8888672-11.2857421-6.5080078-11.2857421-14.158789 0-7.0476563 5.3699218-12.4126953 13.761914-12.4126953 5.9746094 0 10.2699219 2.0792968 13.3650391 7.5238281l-7.3173828 4.6984375c-1.6111328-2.8888672-3.3492188-4.0269531-6.0476563-4.0269531-2.7523437 0-4.496875 1.7460937-4.496875 4.0269531 0 2.8191406 1.7460938 3.9603515 5.7777344 5.7064453l2.3492187 1.00625c7.9841797 3.4238281 12.4919922 6.9142578 12.4919922 14.7619141 0 8.4603515-6.6460937 13.0953125-15.5714843 13.0953125-8.7269532 0-14.3650391-4.1587891-17.1238282-9.6095704zm-33.1953125.8142578c1.4761719 2.6191407 2.8191406 4.8333985 6.0476562 4.8333985 3.0873047 0 5.034961-1.2080078 5.034961-5.9046875v-31.9525391h9.396875v32.0792969c0 9.7300781-5.7046875 14.158789-14.031836 14.158789-7.5238281 0-11.8808593-3.89375-14.096875-8.5833984z" fill="#000"/></g></g></svg>