<svg height="155" viewBox="0 0 155 155" width="155" xmlns="http://www.w3.org/2000/svg" xmlns:xlink="http://www.w3.org/1999/xlink"><mask id="a" fill="#fff"><path d="m0 0h155v155h-155z" fill="#fff" fill-rule="evenodd"/></mask><g fill="#539d43" mask="url(#a)"><g transform="translate(30 22)"><path d="m91.4399007 24.5171585-38.8574024-23.30309311c-2.8396335-1.61875385-6.3228435-1.61875385-9.162477 0l-38.85990242 23.30059331c-2.84819139 1.7452398-4.57740497 4.8517001-4.56011888 8.1918297v46.5386919c-.01695661 3.3420365 1.71183927 6.4505895 4.56011888 8.199329l10.18997442 6.0845021.0574998.0324974c5.1449871 2.6322846 7.1149822 2.6322846 9.3974764 2.6322846 8.0349799 0 13.0274673-5.1995745 13.0274673-13.5713895v-45.1238076c.0097147-1.172972-.9319546-2.1324592-2.1049947-2.1448245h-5.5949859c-1.1730401.0123653-2.1147094.9718525-2.1049947 2.1448245v45.1238076c.0414071 1.3139476-.6083574 2.5536189-1.7124957 3.2672327-1.4749963.8999263-3.617491.7099419-6.0349849-.5374561l-9.76497547-5.8770191c-.07592058-.0517931-.12094674-.1380864-.1199997-.2299811v-45.8812457c.00325939-.107024.05825005-.2058129.14749963-.2649783l37.95990464-23.24809764c.0574784-.02856921.1250212-.02856921.1824996 0l37.9824046 23.24809764c.087676.0639742.1389218.1664578.1374997.2749775v45.8712465c.0019024.0959825-.0393951.1877475-.1124998.2499795l-38.0149045 22.6606462c-.0647716.022477-.1352279.022477-.1999995 0l-9.7074756-5.7645288c-.5866634-.3834371-1.333991-.4225661-1.9574951-.1024916l-.0849998.0499959c-2.6799933 1.5873701-3.3999915 1.9998364-5.8849852 2.9047623-.404999.147488-1.3574966.4999591-1.4399964 1.4423822-.0824998.942423.8224979 1.612368 1.6274959 2.07983l12.9749674 7.966848c1.3824553.828053 2.9634793 1.26604 4.5749885 1.267396h.1449997c1.5712199-.024646 3.1083783-.461706 4.4574888-1.267396l38.8574024-23.2805953c2.8465398-1.7539846 4.5742976-4.8635125 4.5600993-8.2068284v-46.5386919c.0159366-3.3391143-1.7130395-6.4442001-4.5600993-8.1893299z"/><path d="m60.9699772 71.5083134c-9.3224766 0-11.3099716-2.6047869-11.8999701-6.8094428-.1373021-1.0346453-1.011335-1.8129194-2.0549948-1.8298503h-4.9499876c-1.1614543.0246098-2.0845257.9833658-2.0652991 2.1448245 0 3.6447017 1.2803011 15.5412283 20.9802516 15.5412283 6.0949847 0 11.164972-1.4248834 14.6574632-4.1221627s5.3624865-6.6219582 5.3624865-11.2990754c0-9.3867319-6.1249846-11.9565217-18.1874543-13.6363842-12.2624692-1.7048605-12.2624692-2.5722895-12.2624692-4.4721341 0-1.3673881 0-4.569626 8.8649777-4.569626 6.3074842 0 9.6849757.7974347 10.764973 4.9995909.1970501.9597905 1.0352111 1.6533501 2.0149949 1.6673635h4.9674876c.5922488-.0058646 1.1533194-.2663411 1.5399961-.7149415.3819264-.4458186.5723982-1.0243758.5299987-1.6098682-.6424984-8.8867729-7.1399821-13.393904-19.8099503-13.393904-11.5149711 0-18.3874538 5.1870755-18.3874538 13.8738647 0 9.5242206 7.1224821 12.2165003 17.8224552 13.3314091 12.4999686 1.2923943 12.4999686 3.17724 12.4999686 4.8421038.0075 2.5947877-1.0699973 6.0570044-10.3874739 6.0570044z"/></g></g></svg>