<svg height="155" viewBox="0 0 155 155" width="155" xmlns="http://www.w3.org/2000/svg" xmlns:xlink="http://www.w3.org/1999/xlink"><linearGradient id="a" x1="-2.172536%" x2="70.98227%" y1="3.846441%" y2="67.963322%"><stop offset="0" stop-color="#5a9fd4"/><stop offset="1" stop-color="#306998"/></linearGradient><linearGradient id="b" x1="64.760605%" x2="38.982037%" y1="71.726937%" y2="34.364046%"><stop offset="0" stop-color="#ffd43b"/><stop offset="1" stop-color="#ffe873"/></linearGradient><mask id="c" fill="#fff"><path d="m0 0h155v155h-155z" fill="#fff" fill-rule="evenodd"/></mask><g fill="none" mask="url(#c)"><g transform="translate(28 27)"><path d="m49.4045711.00082644c-4.1235536.01915453-8.0612886.37084732-11.5260847.98398946-10.20699 1.80328952-12.0602392 5.57751999-12.0602392 12.5381149v9.1927876h24.1202809v3.064131h-24.1202809-9.0521896c-7.00996216 0-13.14829492 4.2134021-15.06809132 12.2288779-2.21461805 9.187456-2.31276028 14.9207793 0 24.5140347 1.71462581 7.1406868 5.80915146 12.2286805 12.81911362 12.2286805h8.2931176v-11.0201685c0-7.9613692 6.8883212-14.983772 15.0682889-14.983772h24.0922402c6.7064519 0 12.0600417-5.5218336 12.0600417-12.2569186v-22.9676526c0-6.53662836-5.5145272-11.4470971-12.0600417-12.5381149-4.143498-.68976022-8.4427993-1.00314398-12.5661555-.98398946zm-13.0442286 7.39364502c2.49147 0 4.525996 2.06789836 4.525996 4.61031544 0 2.5335309-2.034526 4.5822748-4.525996 4.5822748-2.5003561 0-4.525996-2.0487439-4.525996-4.5822748 0-2.54261455 2.0256399-4.61031544 4.525996-4.61031544z" fill="url(#a)"/><path d="m77.038818 25.7794544v10.711129c0 8.3039785-7.040175 15.2930089-15.0680914 15.2930089h-24.0922402c-6.5992261 0-12.0602392 5.6480165-12.0602392 12.2569186v22.9676527c0 6.5366283 5.6841534 10.3815528 12.0602392 12.2569186 7.6351499 2.2450278 14.9569161 2.6508278 24.0922402 0 6.072378-1.7580691 12.0600417-5.2963238 12.0600417-12.2569186v-9.1927877h-24.0922402v-3.0643284h24.0922402 12.0602392c7.0099622 0 9.6222834-4.889537 12.0602392-12.2286805 2.5183263-7.5555698 2.4111003-14.8214522 0-24.5140346-1.732398-6.9785646-5.0411934-12.228878-12.0602392-12.228878zm-13.5499475 58.1645783c2.5003561 0 4.525996 2.0487438 4.525996 4.5822748 0 2.5426145-2.0256399 4.6105128-4.525996 4.6105128-2.49147 0-4.525996-2.0678983-4.525996-4.6105128-.0001975-2.533531 2.0343285-4.5822748 4.525996-4.5822748z" fill="url(#b)"/></g></g></svg>